<?xml version="1.0" encoding="utf-8"?>
<!-- Generator: Adobe Illustrator 16.0.0, SVG Export Plug-In . SVG Version: 6.00 Build 0)  -->
<!DOCTYPE svg PUBLIC "-//W3C//DTD SVG 1.1//EN" "http://www.w3.org/Graphics/SVG/1.1/DTD/svg11.dtd">
<svg version="1.1" id="Layer_1" xmlns="http://www.w3.org/2000/svg" xmlns:xlink="http://www.w3.org/1999/xlink" x="0px" y="0px"
	 width="255px" height="255px" viewBox="0 0 255 255" enable-background="new 0 0 255 255" xml:space="preserve">
<path fill="#19B7CA" d="M248.357,132.225c-5.524-0.408-10.26,0.264-14.203,1.426c0.343-1.278,0.613-2.617,0.785-4
	c0.299-2.452-1.448-4.685-3.903-4.982c-2.456-0.286-4.685,1.447-4.986,3.902c-0.554,4.541-2.709,8.5-4.377,10.988
	c-13.834-8.265-39.167-29.658-41.593-31.716c-2.667-2.814-28.508-29.273-57.168-29.273c-7.273,0-14.721,2.311-20.572,5.004
	c0.012-0.266,0.042-0.522,0.042-0.79c-0.012-2.466-2.011-4.458-4.476-4.458c-0.006,0-0.012,0-0.018,0
	c-2.471,0.009-4.467,2.02-4.458,4.493c0.019,4.056-2.085,8.054-2.097,8.08c-0.005,0.006-0.005,0.013-0.009,0.016
	c-0.003,0.003-0.009,0.009-0.009,0.012c-8.354,15.7-21.082,19.701-30.293,20.295c-5.886,0.379-10.86-0.552-14.396-2.709
	c-2.032-1.24-2.133-2.064-2.178-2.457c-0.415-3.407,4.348-10.123,9.39-17.229c4.234-5.968,9.029-12.734,13.325-20.775
	c3.211-6.57,6.517-10.229,10.717-11.86c21.945-8.507,40.794-15.548,49.095-15.548c3.809,0,10.365,1.279,17.952,2.759
	c8.328,1.626,18.696,3.649,29.597,4.792c18.852,1.979,39.662,12.917,43.647,32.894c0.479,2.426,2.842,3.999,5.267,3.515
	c2.424-0.482,3.996-2.84,3.512-5.266c-1.424-7.145-4.559-13.305-8.787-18.547c5.177-0.709,12.124-2.174,18.902-5.233
	c2.256-1.018,3.258-3.667,2.24-5.92c-1.014-2.252-3.664-3.255-5.916-2.241c-11.138,5.021-23.332,5.111-23.455,5.111
	c-0.089,0-0.179,0.021-0.269,0.027c-9.835-7.576-22.349-12-34.205-13.242c-10.507-1.104-20.233-3.002-28.813-4.676
	c-8.375-1.636-14.99-2.925-19.666-2.925c-3.722,0-8.6,0.949-14.531,2.636c-8.781,0.248-14.939-0.459-20.372-1.093
	c-8.408-0.979-15.667-1.822-27.793,1.469c-8.081,2.188-14.119,4.528-19.451,6.587c-9.954,3.852-15.969,6.177-26.561,4.111
	c-2.429-0.482-4.774,1.113-5.246,3.539c-0.474,2.426,1.11,4.776,3.539,5.249c3.303,0.645,6.286,0.928,9.067,0.928
	c8.274,0,14.749-2.504,22.432-5.476c5.129-1.983,10.935-4.228,18.567-6.298c9.978-2.706,15.781-2.21,23.314-1.343
	c-4.779,1.787-9.87,3.742-15.294,5.845c-8.28,3.217-12.645,10.386-15.45,16.129c-3.954,7.403-8.578,13.923-12.656,19.675
	c-6.594,9.297-11.804,16.644-10.978,23.491c0.448,3.664,2.605,6.698,6.406,9.014c5.189,3.168,11.797,4.506,19.636,4
	c11.34-0.729,26.946-5.562,37.248-24.341c2.256-1.697,12.893-8.292,24.061-8.292c25.77,0,50.552,26.354,50.8,26.615
	c0.116,0.125,0.243,0.248,0.373,0.361c1.329,1.13,32.651,27.777,46.593,34.755c1.407,0.799,2.297,1.935,2.715,3.463
	c0.641,2.345,0.094,5.451-1.428,8.11c-2.447,4.283-9.56,6.027-11.511,5.775c-5.86-0.906-23.69-3.666-47.295-23.682
	c-1.888-1.602-4.711-1.367-6.308,0.52c-1.598,1.885-1.363,4.711,0.521,6.308c22.413,19.009,40.337,23.673,48.868,25.228
	c-0.395,1.969-1.264,3.857-2.661,5.479c-2.419,2.798-5.979,4.487-10.032,4.75c-6.585,0.432-30.117-5.276-44.133-17.728
	c-1.848-1.642-4.682-1.474-6.314,0.373c-1.643,1.848-1.479,4.68,0.373,6.316c11.25,10.002,27.682,16.178,39.42,18.695
	c-1.799,2.641-4.26,4.379-7.479,5.223c-11.832,3.146-30.226-5.998-35.301-9.494c-0.845-4.586-3.486-8.498-7.386-10.811
	c-3.75-2.231-8.398-2.851-13.438-1.924c-1.122-3.76-3.854-7.443-7.543-9.977c-4.442-3.052-9.864-4.273-15.545-3.615
	c-2.892-7.611-10.902-11.574-18.338-11.574c-0.382,0-0.761,0.014-1.125,0.031c-4.058,0.24-8.172,1.986-12.024,4.364
	c-0.164-0.897-0.391-1.707-0.647-2.421c-1.978-5.534-6.672-9.079-10.401-10.547c-7.773-3.059-18.201-0.698-25.863,5.669
	c-3.998-3.32-11.254-8.584-19.59-10.992c-2.381-0.683-4.855,0.688-5.541,3.06c-0.684,2.377,0.684,4.856,3.059,5.541
	c6.782,1.957,12.943,6.457,16.324,9.254c-1.754,3.357-2.432,7.019-1.874,10.631c0.967,6.263,5.353,11.625,12.036,14.726
	c2.885,1.334,5.792,2.006,8.667,2.006c0.994,0,1.979-0.104,2.96-0.269c0.173,1.632,0.561,3.117,0.964,4.363
	c2.516,7.856,10.607,13.092,16.771,15.188c1.761,0.593,4.136,1.276,6.898,1.282c0.734,0,1.45-0.104,2.172-0.203
	c2.844,7.033,8.482,11.707,16.909,13.848c1.447,0.367,3.084,0.581,4.828,0.581c2.628,0,5.496-0.519,8.292-1.735
	c3.339,3.688,9.432,8.246,16.469,8.246c1.639,0,3.328-0.244,5.045-0.81c3.533-1.165,6.676-3.675,9.326-6.876
	c2.32,1.41,7.668,4.268,14.021,4.918c1.138,0.115,2.243,0.182,3.319,0.182c9.256,0,16.236-4.423,20.88-13.078
	c0.099,0.006,0.202,0.013,0.306,0.013c2.637,0,5.215-0.28,7.648-0.923c6.75-1.783,11.759-6.118,14.688-12.594
	c0.188,0.006,0.406,0.022,0.582,0.022c0.412,0,0.8-0.011,1.157-0.035c6.477-0.421,12.243-3.204,16.234-7.838
	c2.826-3.271,4.524-7.179,4.976-11.294c5.106-1.182,11.272-4.255,14.407-9.738c2.693-4.718,3.548-10.294,2.285-14.916
	c-0.494-1.799-1.312-3.412-2.395-4.854c3.402-2.271,9.391-4.997,18.059-4.338c2.426,0.14,4.613-1.664,4.795-4.133
	C252.671,134.557,250.822,132.409,248.357,132.225z M35.979,171.889c-3.918-1.818-6.448-4.727-6.952-7.974
	c-0.456-2.96,0.859-6.026,3.708-8.632c5.914-5.42,13.358-6.534,17.652-4.842c1.96,0.77,4.344,2.686,5.254,5.231
	c0.767,2.146,0.403,4.628-0.999,7.36c-3.282,3.133-5.839,6.066-7.274,7.814C43.594,173.386,39.962,173.729,35.979,171.889z
	 M64.459,192.814c-4.521-1.533-9.787-5.27-11.123-9.435c-1.015-3.166-0.659-4.668,0.122-5.853c2.787-3.791,15.31-17.37,23.81-17.871
	c0.197-0.012,0.396-0.018,0.597-0.018c3.795,0,9.712,2.033,10.434,7.633c1.107,8.58-6.716,18.195-13.752,23.817
	c-2.837,2.267-4.822,2.536-6.069,2.536C67.347,193.625,66.106,193.373,64.459,192.814z M89.763,207.54
	c-3.968-1.008-8.593-2.924-10.875-8.59c0.418-0.292,0.835-0.537,1.25-0.868c4.004-3.199,15.916-13.801,17.103-26.951
	c4.377-0.521,7.507,0.799,9.441,2.127c2.641,1.811,4.02,4.26,4.213,5.881c0.904,7.459-5.845,21.166-10.401,25.489
	C97.038,207.913,92.553,208.246,89.763,207.54z M119.398,213.997c-4.535,1.503-9.071-1.877-11.445-4.231
	c4.708-5.32,10.082-15.738,11.561-24.808c3.456-0.901,6.481-0.774,8.641,0.508c1.808,1.071,2.961,2.916,3.254,5.175
	C132.355,197.995,126.078,211.801,119.398,213.997z M146.463,211.637c-4.505-0.466-8.465-2.562-10.143-3.572
	c1.486-3.062,2.604-6.291,3.295-9.383c5.195,2.85,12.578,6.071,20.312,7.772C155.784,211.734,150.697,212.087,146.463,211.637z"/>
</svg>
