<?xml version="1.0" encoding="utf-8"?>
<!-- Generator: Adobe Illustrator 16.0.0, SVG Export Plug-In . SVG Version: 6.00 Build 0)  -->
<!DOCTYPE svg PUBLIC "-//W3C//DTD SVG 1.1//EN" "http://www.w3.org/Graphics/SVG/1.1/DTD/svg11.dtd">
<svg version="1.1" id="Layer_1" xmlns="http://www.w3.org/2000/svg" xmlns:xlink="http://www.w3.org/1999/xlink" x="0px" y="0px"
	 width="255px" height="255px" viewBox="22.5 22.5 255 255" enable-background="new 22.5 22.5 255 255" xml:space="preserve">
<path fill="#FFFFFF" d="M133.198,211.749c2.732,0,5.464-0.547,7.923-1.093l-22.13,54.096c-0.82,1.914-2.186,3.278-4.098,3.552
	L90.03,274.86c-2.459,0.547-5.191-0.546-6.557-2.732l-13.114-22.129c-1.093-1.639-1.093-3.824-0.546-5.464l20.491-50.271
	c3.824,1.913,7.923,3.005,12.294,3.005c1.64,0,3.278-0.273,4.918-0.546h0.546l0.273,0.546
	C113.253,206.012,122.816,211.749,133.198,211.749z M233.193,101.645c5.19,4.645,5.19,12.568,0,16.938l-3.278,3.006
	c-3.553,3.278-4.919,8.47-3.006,12.84l1.64,4.099c2.73,6.284-0.82,13.387-7.377,15.3l-4.371,1.092
	c-4.645,1.366-7.924,5.466-8.197,10.383l-0.272,4.371c-0.273,6.83-6.558,11.748-13.388,10.656l-4.371-0.82
	c-4.646-0.819-9.562,1.367-12.021,5.737l-2.186,3.826c-3.278,6.009-10.93,7.649-16.665,3.824l-3.553-2.732
	c-3.825-2.731-9.289-2.731-13.114,0l-3.552,2.459c-5.465,3.825-13.388,2.186-16.393-3.824l-2.187-3.824
	c-2.186-4.372-7.103-6.559-11.748-5.739l-4.372,0.819c-6.83,1.093-12.841-3.824-13.114-10.654l-0.274-4.371
	c-0.272-4.918-3.552-9.018-8.196-10.382l-4.372-1.093c-6.557-1.914-9.835-9.017-7.376-15.301l1.639-4.098
	c1.913-4.372,0.82-9.562-3.005-12.841l-3.279-3.005c-5.19-4.645-5.19-12.568,0-16.94l3.279-3.004
	c3.551-3.279,4.918-8.47,3.005-12.842l-1.639-4.098c-2.732-6.283,0.82-13.387,7.376-15.3l4.372-1.093
	c4.644-1.366,7.923-5.464,8.196-10.382l0.274-4.372c0.272-6.83,6.557-11.748,13.387-10.655l4.372,0.819
	c4.644,0.82,9.562-1.365,12.021-5.737l2.187-3.825c3.278-6.011,10.928-7.649,16.665-3.825l3.552,2.732
	c3.825,2.732,9.29,2.732,13.114,0l3.553-2.732c5.464-3.825,13.387-2.186,16.392,3.825l2.186,3.825
	c2.186,4.372,7.104,6.557,11.749,5.737l4.371-0.819c6.83-1.093,12.841,3.825,13.114,10.655l0.272,4.372
	c0.273,4.918,3.553,9.016,8.197,10.382l4.371,1.093c6.557,1.913,9.836,9.017,7.377,15.3l-1.64,4.098
	c-1.913,4.372-0.818,9.562,3.006,12.842L233.193,101.645z M201.773,109.841c0-28.415-22.949-51.637-51.637-51.637
	c-28.414,0-51.637,22.95-51.637,51.637c0,28.414,22.949,51.638,51.637,51.638C178.551,161.479,201.773,138.528,201.773,109.841z
	 M209.971,194.264c-3.825,1.913-8.197,3.005-12.842,3.005c-1.639,0-3.277-0.273-4.917-0.546h-0.546l-0.273,0.546
	c-4.919,9.016-14.481,14.48-24.589,14.48c-2.732,0-5.192-0.547-7.65-1.093l22.129,54.096c0.82,1.914,2.186,3.278,4.1,3.552
	l24.861,6.557c2.459,0.547,5.19-0.546,6.558-2.73l13.114-22.131c1.093-1.639,1.093-3.824,0.547-5.464L209.971,194.264z
	 M178.824,96.453l-18.305-1.366l-6.83-16.939c-0.547-1.639-2.187-2.458-3.553-2.458s-3.005,0.819-3.552,2.458l-6.831,16.939
	l-18.305,1.366c-3.278,0.273-4.917,4.372-2.186,6.831l13.935,11.748l-4.372,17.486c-0.819,2.459,1.366,4.645,3.552,4.645
	c0.546,0,1.366-0.273,1.913-0.546l15.3-9.563l15.574,9.563c0.546,0.546,1.366,0.546,1.912,0.546c2.186,0,4.099-2.186,3.552-4.645
	l-4.371-17.486l14.207-11.748C183.741,100.825,182.103,96.453,178.824,96.453z"/>
</svg>
