<?xml version="1.0" encoding="utf-8"?>
<!-- Generator: Adobe Illustrator 16.0.0, SVG Export Plug-In . SVG Version: 6.00 Build 0)  -->
<!DOCTYPE svg PUBLIC "-//W3C//DTD SVG 1.1//EN" "http://www.w3.org/Graphics/SVG/1.1/DTD/svg11.dtd">
<svg version="1.1" id="Layer_1" xmlns="http://www.w3.org/2000/svg" xmlns:xlink="http://www.w3.org/1999/xlink" x="0px" y="0px"
	 width="255px" height="255px" viewBox="0 0 255 255" enable-background="new 0 0 255 255" xml:space="preserve">
<g>
	<path fill="#FFFFFF" d="M228.849,221.378l-8.945-82.706c-0.204-3.406-0.275-3.693-1.201-6.283l-20.346-51.115
		c3.719,0.149,6-2.515,6-14.239c-0.935-6.939-5.445-24.744-15.653-30.2c0,0-26.323-17.334-50.079-17.334
		c-26.323,0-52.646,16.049-52.646,16.049c-3.525,3.703-6.632,6.949-8.995,10.384L16.714,115.49
		c-2.553,3.506-3.018,7.891-1.631,11.678c0,0.003,0,0.006,0,0.01l20.886,91.014c-0.514-0.01-1.017-0.026-1.552-0.026
		c-14.083,0-29.873,7.731-29.873,12.521c0,4.787,15.79,4.813,29.875,4.813c5.814,0,10.41-0.669,13.826-1.78
		c0.052-0.009,0.104-0.004,0.155-0.015c1.301-0.251,2.462-0.813,3.465-1.585c2.443-1.464,3.684-3.295,3.684-5.287
		c0-0.354-0.05-0.695-0.126-1.038c0.153-1.116,0.158-2.28-0.071-3.468L42.03,125.582L95.941,76.16
		c9.219-6.02,33.609-21.167,42.682-19.104c3.703,0.842,13.437,5.273,23.026,9.899l41.457,73.282
		c0.138,0.239,0.228,0.503,0.266,0.774l11.91,82.646c0.228,1.801,0.484,3.374,0.976,4.605c0.644,3.015,3.566,5.416,10.41,5.924
		c8.244,0.609,20.788-1.262,23.365-4.16C253.271,226.385,237.093,221.987,228.849,221.378z"/>
	<path fill="#FFFFFF" d="M202.083,83.248l16.904,42.475c10.717-2.104,18.805-11.541,18.805-22.875c0-12.88-10.439-23.32-23.32-23.32
		c-4.107,0-7.953,1.073-11.302,2.942C202.831,82.754,202.487,83.038,202.083,83.248z"/>
</g>
</svg>
