<?xml version="1.0" encoding="utf-8"?>
<!-- Generator: Adobe Illustrator 16.0.0, SVG Export Plug-In . SVG Version: 6.00 Build 0)  -->
<!DOCTYPE svg PUBLIC "-//W3C//DTD SVG 1.1//EN" "http://www.w3.org/Graphics/SVG/1.1/DTD/svg11.dtd">
<svg version="1.1" id="Layer_1" xmlns="http://www.w3.org/2000/svg" xmlns:xlink="http://www.w3.org/1999/xlink" x="0px" y="0px"
	 width="255px" height="255px" viewBox="0 0 255 255" enable-background="new 0 0 255 255" xml:space="preserve">
<path fill="#FFFFFF" d="M23.517,134.41c-6.72,27.6-4.56,58.319,2.64,85.92c0.48,2.159,2.88,4.319,5.04,3.84
	c15.36-1.92,31.68-2.399,47.04,0.24c8.88,1.44,17.04,5.04,25.92,6.72c9.84,1.68,19.68,2.641,29.52,3.12
	c10.32,0.479,20.64,0.72,30.96,0.72c8.159,0,17.28,0.961,25.2-0.24c15.6-2.399,22.08-17.279,18.24-30.239
	c16.799-2.16,25.439-21.841,15.84-36.24c6.24-3.601,10.08-9.84,11.279-17.521c0.24-0.72,0.48-1.439,0.24-2.399
	c0-0.96,0-1.681-0.48-2.399c-1.439-8.641-6-15.121-13.439-18.481c8.16-15.36-2.4-35.28-21.6-34.56c-0.48-0.24-0.961-0.24-1.44-0.24
	c-16.56-0.24-33.36-0.24-49.92-0.48c-0.24-12,1.92-23.52,3.601-35.76c1.439-10.56,0.239-22.8-7.681-30.48
	c-4.8-4.8-14.16-8.4-20.64-4.8c-5.76,3.12-7.92,12-10.08,17.76c-9.84,27.12-22.56,54.48-49.2,68.88
	c-10.56,5.76-21.6,9.12-32.64,13.44C25.437,123.37,25.196,127.69,23.517,134.41z M35.517,131.05c5.52-1.68,11.04-3.6,16.32-5.76
	c-6.96,28.321-4.8,59.041,1.92,87.121c-6.24,0-12.48,0.239-18.48,0.96C29.037,186.489,27.597,157.21,35.517,131.05z M116.157,61.45
	c3.36-7.68,6-15.84,9.12-23.521c2.4-6.24,4.32-10.8,11.28-4.8c9.84,8.64,3.84,25.2,2.399,36.24c-1.199,9.12-1.68,18.72-0.959,28.08
	c0.239,2.88,2.16,5.28,5.279,5.28c17.76,0.24,35.28,0.24,53.04,0.48c0.72,0.24,1.2,0.48,1.92,0.24
	c13.681-1.44,21.12,12.72,10.56,22.8c-3.84,3.601-0.479,8.64,3.841,9.121c6.96,0.96,11.28,5.76,12,12.72
	c-0.479,7.2-4.8,11.28-11.761,12.72c-5.039,1.2-4.799,7.2-1.199,9.84c13.199,9.601,2.64,26.641-11.76,22.561
	c-5.28-1.439-8.641,5.04-5.28,8.88c5.04,5.761,5.521,15.12-1.44,19.681c-4.32,2.879-8.88,2.399-13.92,2.399
	c-6.72,0-13.439,0.24-20.16,0.24c-17.039,0-34.32-0.24-51.12-3.12c-14.64-2.4-28.08-7.68-43.2-8.641
	c-7.68-30-9.84-63.119-0.24-92.88c3.36-1.68,6.96-3.6,10.08-5.52C94.077,102.009,107.517,81.85,116.157,61.45z"/>
</svg>
