<?xml version="1.0" encoding="utf-8"?>
<!-- Generator: Adobe Illustrator 16.0.0, SVG Export Plug-In . SVG Version: 6.00 Build 0)  -->
<!DOCTYPE svg PUBLIC "-//W3C//DTD SVG 1.1//EN" "http://www.w3.org/Graphics/SVG/1.1/DTD/svg11.dtd">
<svg version="1.1" id="Layer_1" xmlns="http://www.w3.org/2000/svg" xmlns:xlink="http://www.w3.org/1999/xlink" x="0px" y="0px"
	 width="255px" height="255px" viewBox="22.5 22.5 255 255" enable-background="new 22.5 22.5 255 255" xml:space="preserve">
<g>
	<path fill="#19B7CA" d="M236.538,122.007c8.629-3.937,12.427-14.111,8.487-22.747c-3.908-8.64-14.105-12.448-22.732-8.523
		c-8.637,3.952-12.466,14.134-8.521,22.775C217.717,122.119,227.906,125.937,236.538,122.007z"/>
	<path fill="#19B7CA" d="M272.735,90.068c-1.872-0.813-4.084,0.061-4.899,1.956c-11.802,27.478-31.682,48.522-56.812,61.464
		l5.476-11.3c0.147-0.265,0.635-1.398,0.659-1.459c4.591-10.663-3.149-25.549-18.752-22.392l-41.843,12.332l-10.646-25.574
		c-4.611-10.512-18.846-13.445-25.63-3.284l-26.369,41.919c-2.979,4.735-1.55,10.982,3.183,13.957
		c1.676,1.055,3.533,1.55,5.373,1.55c3.367,0,6.656-1.668,8.581-4.732l18.245-29.004l9.089,28.719
		c5.27,8.531,12.958,10.522,20.118,8.874l33.756-9.34l-4.315,8.908c-12.506,3.614-25.902,5.538-39.958,5.538
		c-0.141,0-0.298,0-0.439,0c-58.095-0.162-97.786-33.921-115.568-65.465c-1.012-1.797-3.273-2.433-5.085-1.418
		c-1.79,1.01-2.428,3.286-1.417,5.083c18.808,33.374,60.75,69.088,122.042,69.26c0.157,0,0.31,0,0.464,0
		c12.442,0,24.361-1.479,35.695-4.194l-13.234,27.303c-2.021,4.164-0.278,9.186,3.887,11.196c1.181,0.578,2.428,0.843,3.652,0.843
		c3.111,0,6.102-1.736,7.548-4.727l20.293-41.872c30.721-13.111,55.015-37,68.866-69.242
		C275.512,93.074,274.633,90.878,272.735,90.068z"/>
</g>
</svg>
