<?xml version="1.0" encoding="utf-8"?>
<!-- Generator: Adobe Illustrator 16.0.0, SVG Export Plug-In . SVG Version: 6.00 Build 0)  -->
<!DOCTYPE svg PUBLIC "-//W3C//DTD SVG 1.1//EN" "http://www.w3.org/Graphics/SVG/1.1/DTD/svg11.dtd">
<svg version="1.1" id="Layer_1" xmlns="http://www.w3.org/2000/svg" xmlns:xlink="http://www.w3.org/1999/xlink" x="0px" y="0px"
	 width="255px" height="255px" viewBox="22.5 22.5 255 255" enable-background="new 22.5 22.5 255 255" xml:space="preserve">
<g>
	<path fill="#FFFFFF" d="M185.597,73.686c-2.86,0-5.468,0-5.784,0c-0.314,0-0.574,0.24-0.574,0.533c0,0.293,0,3.135,0,6.314v2.256
		c0,3.18,2.602,4.769,5.779,4.769h1.157c3.178,0,5.779-1.591,5.779-4.769v-2.256c0-3.182,0-6.021,0-6.314
		c0-0.292-0.259-0.533-0.573-0.533C191.063,73.686,188.459,73.686,185.597,73.686z"/>
	<path fill="#FFFFFF" d="M172.301,71.37h27.748c2.547,0,4.63-2.081,4.63-4.623v-4.625c0-2.544-2.083-4.625-4.63-4.625h-27.748
		c-2.547,0-4.63,2.081-4.63,4.625v4.625C167.671,69.292,169.754,71.37,172.301,71.37z"/>
	<path fill="#FFFFFF" d="M195.967,83.629c0,2.63-2.854,7.399-10.37,7.399c-7.515,0-10.37-5.203-10.37-7.399
		c-39.158,5.085-69.41,38.544-69.41,79.092c0,44.059,35.721,79.78,79.78,79.78c44.063,0,79.783-35.722,79.783-79.783
		C265.38,122.173,235.13,88.715,195.967,83.629z M185.597,226.312c-35.124,0-63.593-28.469-63.593-63.593
		s28.469-63.598,63.593-63.598s63.593,28.472,63.593,63.598C249.189,197.843,220.721,226.312,185.597,226.312z"/>
	<path fill="#FFFFFF" d="M187.91,155.97v-44.128h-3.466v44.128c-3.638,0.797-6.36,4.032-6.36,7.904c0,4.473,3.625,8.095,8.094,8.095
		s8.095-3.622,8.095-8.095C194.27,160.002,191.543,156.767,187.91,155.97z"/>
	<path fill="#FFFFFF" d="M192.847,151.478c0,0,2.071,0.619,3.444,1.992c1.373,1.37,2.277,3.729,2.277,3.729l13.882-13.878
		l-5.717-5.722L192.847,151.478z"/>
	<path fill="#FFFFFF" d="M34.62,160.224c0,3.177,2.602,5.781,5.781,5.781h49.485c3.178,0,5.782-2.604,5.782-5.781l0,0
		c0-3.181-2.604-5.785-5.782-5.785H40.401C37.222,154.438,34.62,157.043,34.62,160.224L34.62,160.224z"/>
	<path fill="#FFFFFF" d="M69.307,102.364c0,3.18,2.603,5.782,5.782,5.782h35.765c3.18,0,5.781-2.602,5.781-5.782l0,0
		c0-3.18-2.602-5.782-5.781-5.782H75.089C71.909,96.582,69.307,99.184,69.307,102.364L69.307,102.364z"/>
	<path fill="#FFFFFF" d="M69.307,217.986c0,3.183,2.603,5.781,5.782,5.781h35.765c3.18,0,5.781-2.599,5.781-5.781l0,0
		c0-3.178-2.602-5.779-5.781-5.779H75.089C71.909,212.204,69.307,214.806,69.307,217.986L69.307,217.986z"/>
	<path fill="#FFFFFF" d="M47.34,189.659c0,3.178,2.6,5.779,5.779,5.779h42.089c3.178,0,5.779-2.602,5.779-5.779l0,0
		c0-3.18-2.602-5.781-5.779-5.781H53.121C49.939,183.878,47.34,186.479,47.34,189.659L47.34,189.659z"/>
	<path fill="#FFFFFF" d="M47.34,130.919c0,3.18,2.6,5.782,5.779,5.782h42.089c3.178,0,5.779-2.602,5.779-5.782l0,0
		c0-3.178-2.602-5.782-5.779-5.782H53.121C49.939,125.14,47.34,127.741,47.34,130.919L47.34,130.919z"/>
</g>
</svg>
