<?xml version="1.0" encoding="utf-8"?>
<!-- Generator: Adobe Illustrator 16.0.0, SVG Export Plug-In . SVG Version: 6.00 Build 0)  -->
<!DOCTYPE svg PUBLIC "-//W3C//DTD SVG 1.1//EN" "http://www.w3.org/Graphics/SVG/1.1/DTD/svg11.dtd">
<svg version="1.1" id="Layer_1" xmlns="http://www.w3.org/2000/svg" xmlns:xlink="http://www.w3.org/1999/xlink" x="0px" y="0px"
	 width="255px" height="255px" viewBox="0 0 255 255" enable-background="new 0 0 255 255" xml:space="preserve">
<path fill="#FFFFFF" d="M133.609,127.919l82.793-48.946c-16.143-31.59-51.725-55.021-91.471-55.021
	c-64.046,0-113.687,58.839-102.405,122.191c8.158,48.6,52.07,86.264,101.19,86.264c38.359,0,76.197-23.432,92.686-55.542
	L133.609,127.919z M141.247,89.214c-8.679,0-15.1-6.249-15.1-14.753c0-9.026,6.421-15.621,15.1-15.621s15.274,6.595,15.274,15.621
	C156.521,82.965,149.926,89.214,141.247,89.214z M221.782,108.133c-10.413,0-19.267,9.373-19.267,19.787
	c0,10.415,8.854,19.267,19.267,19.267c10.414,0,19.786-8.853,19.786-19.267C241.568,117.505,232.196,108.133,221.782,108.133z"/>
</svg>
