<?xml version="1.0" encoding="utf-8"?>
<!-- Generator: Adobe Illustrator 16.0.0, SVG Export Plug-In . SVG Version: 6.00 Build 0)  -->
<!DOCTYPE svg PUBLIC "-//W3C//DTD SVG 1.1//EN" "http://www.w3.org/Graphics/SVG/1.1/DTD/svg11.dtd">
<svg version="1.1" id="Layer_1" xmlns="http://www.w3.org/2000/svg" xmlns:xlink="http://www.w3.org/1999/xlink" x="0px" y="0px"
	 width="255px" height="255px" viewBox="0 0 255 255" enable-background="new 0 0 255 255" xml:space="preserve">
<g>
	<path fill="#19B7CA" d="M250.809,215.791l-52.668-43.274c-2.562-2.277-2.279-6.547,0.854-7.972l22.775-11.957
		c3.986-1.993,3.416-7.688-0.854-9.11L101.341,107.89c-3.985-1.139-7.687,3.133-5.693,6.834l58.079,110.463
		c1.992,3.984,7.688,3.416,9.109-0.855l8.541-29.322c0.854-3.417,5.125-4.556,7.688-2.277l54.094,44.127
		c1.992,1.709,5.123,1.425,6.833-0.568l11.388-13.665C253.086,220.347,252.802,217.498,250.809,215.791z"/>
	<path fill="#19B7CA" d="M44.815,74.021c0.925,0.761,2.093,1.18,3.288,1.18c1.554,0,3.011-0.688,3.998-1.888
		c0.879-1.067,1.289-2.414,1.155-3.79c-0.134-1.376-0.795-2.618-1.863-3.496l-22.49-18.504c-0.924-0.762-2.092-1.181-3.289-1.181
		c-1.554,0-3.011,0.688-3.998,1.888c-0.878,1.067-1.289,2.414-1.155,3.79c0.134,1.375,0.795,2.617,1.863,3.496L44.815,74.021z"/>
	<path fill="#19B7CA" d="M35.861,101.038c0.287,0.048,0.575,0.072,0.856,0.072c2.541,0,4.687-1.82,5.104-4.325
		c0.228-1.364-0.089-2.735-0.893-3.86c-0.804-1.125-1.999-1.871-3.361-2.097L8.525,85.987c-2.871-0.475-5.492,1.475-5.953,4.254
		c-0.228,1.364,0.089,2.735,0.893,3.86c0.804,1.125,1.999,1.871,3.361,2.097L35.861,101.038z"/>
	<path fill="#19B7CA" d="M44.125,122.015c-0.754-2.009-2.703-3.357-4.848-3.357c-0.621,0-1.231,0.109-1.815,0.33L10.13,129.235
		c-2.671,1.002-4.031,3.99-3.029,6.664c0.754,2.01,2.702,3.358,4.847,3.358c0.624,0,1.236-0.11,1.817-0.329l27.332-10.248
		C43.768,127.679,45.127,124.688,44.125,122.015z"/>
	<path fill="#19B7CA" d="M55.791,141.718c-1.554,0-3.011,0.688-3.997,1.889L33.29,166.095c-0.879,1.068-1.29,2.414-1.156,3.79
		c0.134,1.378,0.795,2.618,1.863,3.496c0.924,0.761,2.092,1.181,3.288,1.181c1.556,0,3.014-0.688,3.998-1.888l18.505-22.491
		c1.813-2.203,1.496-5.473-0.71-7.287C58.153,142.136,56.986,141.718,55.791,141.718z"/>
	<path fill="#19B7CA" d="M82.273,153.177c-2.883-0.488-5.501,1.465-5.964,4.254l-4.84,29.037c-0.47,2.815,1.438,5.488,4.25,5.958
		c0.287,0.048,0.574,0.071,0.856,0.071c2.541,0,4.687-1.818,5.104-4.325l4.84-29.039c0.228-1.362-0.089-2.733-0.893-3.86
		C84.822,154.147,83.627,153.401,82.273,153.177z"/>
	<path fill="#19B7CA" d="M136.348,87.201c0.75,2.018,2.699,3.374,4.854,3.374c0.617,0,1.224-0.109,1.801-0.324l27.617-10.249
		c2.675-0.993,4.043-3.978,3.05-6.656c-0.749-2.018-2.7-3.374-4.854-3.374c-0.614,0-1.221,0.109-1.799,0.324l-27.617,10.249
		C136.725,81.539,135.355,84.523,136.348,87.201z"/>
	<path fill="#19B7CA" d="M121.708,66.64c0.92,0.748,2.079,1.16,3.263,1.16c1.566,0,3.03-0.697,4.02-1.913l18.506-22.776
		c0.871-1.073,1.271-2.422,1.129-3.797c-0.143-1.376-0.812-2.613-1.88-3.48c-0.92-0.75-2.079-1.162-3.267-1.162
		c-1.564,0-3.028,0.696-4.02,1.912l-18.504,22.775c-0.873,1.073-1.273,2.421-1.133,3.797
		C119.966,64.531,120.637,65.769,121.708,66.64z"/>
	<path fill="#19B7CA" d="M98.215,56.056c0.286,0.048,0.571,0.071,0.852,0.071c2.535,0,4.681-1.814,5.103-4.317l4.84-28.754
		c0.475-2.814-1.431-5.49-4.263-5.967c-2.868-0.468-5.48,1.475-5.947,4.248l-4.84,28.754C93.486,52.905,95.391,55.58,98.215,56.056z
		"/>
	<path fill="#19B7CA" d="M76.017,51.996L65.768,24.379c-0.75-2.019-2.7-3.375-4.852-3.375c-0.617,0-1.224,0.109-1.803,0.325
		c-2.675,0.994-4.043,3.979-3.05,6.654L66.313,55.6c0.75,2.018,2.7,3.374,4.852,3.374c0.616,0,1.222-0.109,1.803-0.325
		C75.643,57.656,77.011,54.67,76.017,51.996z"/>
</g>
</svg>
