<?xml version="1.0" encoding="utf-8"?>
<!-- Generator: Adobe Illustrator 16.0.0, SVG Export Plug-In . SVG Version: 6.00 Build 0)  -->
<!DOCTYPE svg PUBLIC "-//W3C//DTD SVG 1.1//EN" "http://www.w3.org/Graphics/SVG/1.1/DTD/svg11.dtd">
<svg version="1.1" id="Layer_1" xmlns="http://www.w3.org/2000/svg" xmlns:xlink="http://www.w3.org/1999/xlink" x="0px" y="0px"
	 width="255px" height="255px" viewBox="0 0 255 255" enable-background="new 0 0 255 255" xml:space="preserve">
<g>
	<g>
		<path fill="#FFFFFF" d="M190.918,184.84c-4.424,1.367-9.145,2.645-14.1,3.797v23.03c5.061-1.186,9.77-2.527,14.1-3.984V184.84z"/>
		<path fill="#FFFFFF" d="M173.436,189.393c-4.658,1.008-9.498,1.902-14.474,2.656v22.913c5.073-0.708,9.907-1.56,14.474-2.536
			V189.393z"/>
		<path fill="#FFFFFF" d="M55.392,184.096c-5.359-1.711-10.289-3.545-14.662-5.429v22.569c4.198,2.488,9.077,4.75,14.662,6.732
			V184.096z"/>
		<path fill="#FFFFFF" d="M155.576,192.541c-5.641,0.777-11.43,1.373-17.291,1.752v22.651c6.018-0.323,11.782-0.85,17.291-1.538
			V192.541z"/>
		<path fill="#FFFFFF" d="M194.302,206.492c4.646-1.716,8.798-3.576,12.405-5.531v-21.975c-3.725,1.658-7.891,3.256-12.405,4.766
			V206.492z"/>
		<path fill="#FFFFFF" d="M134.902,194.488c-3.744,0.191-7.51,0.289-11.28,0.289c-2.129,0-4.258-0.037-6.389-0.107v22.599
			c2.098,0.043,4.219,0.064,6.389,0.064c3.845,0,7.601-0.084,11.28-0.235V194.488z"/>
		<path fill="#FFFFFF" d="M37.347,177.143c-2.979-1.411-5.649-2.832-7.941-4.25c-2.58-2.129,6.456-7.352,11.013-9.797
			c-1.502-0.281-12.093,5.1-13.785,7.963c-2.307,4.959-1.27,11.94-1.27,15.881c2.657,4.406,6.646,8.494,11.983,12.154V177.143z"/>
		<path fill="#FFFFFF" d="M220.054,171.059c-3.389-3.221-8.86-6.216-12.991-7.973c-0.004,0.451-0.053,0.914-0.18,1.383
			c6.012,3.516,11.933,7.848,9.412,9.502c-1.846,1.156-3.928,2.296-6.203,3.422v21.6c6.754-4.199,11.104-8.76,12.595-13.27
			C222.684,181.775,222.795,173.408,220.054,171.059z"/>
		<path fill="#FFFFFF" d="M73.436,188.971c-5.119-1.158-10.032-2.449-14.662-3.836v23.967c4.479,1.436,9.365,2.705,14.662,3.787
			V188.971z"/>
		<path fill="#FFFFFF" d="M93.173,192.574c-5.597-0.781-11.068-1.752-16.354-2.863v23.842c5.093,0.939,10.543,1.712,16.354,2.316
			V192.574z"/>
		<path fill="#FFFFFF" d="M113.852,194.533c-5.813-0.281-11.602-0.797-17.294-1.51v23.165c5.462,0.487,11.22,0.83,17.294,1.003
			V194.533z"/>
	</g>
	<g>
		<path fill="#FFFFFF" d="M201.914,156.908c-4.425,1.373-9.146,2.65-14.1,3.797v23.03c5.062-1.181,9.768-2.522,14.1-3.979V156.908z"
			/>
		<path fill="#FFFFFF" d="M184.434,161.464c-4.658,1.008-9.504,1.903-14.475,2.657v22.912c5.068-0.708,9.904-1.555,14.475-2.537
			V161.464z"/>
		<path fill="#FFFFFF" d="M66.387,156.162c-5.359-1.711-10.289-3.54-14.662-5.424v22.569c4.198,2.489,9.079,4.745,14.662,6.731
			V156.162z"/>
		<path fill="#FFFFFF" d="M166.572,164.615c-5.643,0.772-11.432,1.373-17.292,1.752v22.646c6.017-0.32,11.784-0.846,17.292-1.529
			V164.615z"/>
		<path fill="#FFFFFF" d="M205.297,178.559c4.648-1.711,8.798-3.57,12.407-5.531v-21.971c-3.725,1.659-7.892,3.258-12.407,4.768
			V178.559z"/>
		<path fill="#FFFFFF" d="M145.896,166.559c-3.746,0.192-7.508,0.291-11.277,0.291c-2.129,0-4.26-0.039-6.392-0.104v22.594
			c2.101,0.043,4.22,0.064,6.392,0.064c3.844,0,7.598-0.084,11.277-0.234V166.559L145.896,166.559z"/>
		<path fill="#FFFFFF" d="M48.341,149.211c-2.978-1.4-5.649-2.826-7.941-4.25c-2.58-2.119,6.456-7.352,11.014-9.792
			c-1.502-0.28-12.094,5.096-13.786,7.964c-2.306,4.958-1.267,11.935-1.267,15.881c2.657,4.406,6.648,8.493,11.983,12.153v-21.956
			H48.341z"/>
		<path fill="#FFFFFF" d="M231.046,143.13c-5.731-5.45-17.479-10.298-18.466-9.497c6.907,3.525,18,10.248,14.713,12.408
			c-1.846,1.152-3.93,2.297-6.205,3.422v21.596c6.752-4.199,11.105-8.755,12.591-13.27
			C233.676,153.842,233.791,145.479,231.046,143.13z"/>
		<path fill="#FFFFFF" d="M84.43,161.037c-5.117-1.152-10.029-2.449-14.662-3.831v23.972c4.479,1.43,9.365,2.699,14.662,3.781
			V161.037z"/>
		<path fill="#FFFFFF" d="M104.17,164.646c-5.594-0.783-11.069-1.752-16.354-2.869v23.842c5.093,0.939,10.543,1.717,16.354,2.316
			V164.646z"/>
		<path fill="#FFFFFF" d="M124.846,166.607c-5.812-0.276-11.602-0.797-17.294-1.516v23.17c5.462,0.487,11.22,0.836,17.294,1.008
			V166.607z"/>
	</g>
	<g>
		<path fill="#FFFFFF" d="M188.473,126.832c-4.424,1.371-9.145,2.645-14.098,3.799v23.03c5.059-1.181,9.772-2.522,14.098-3.979
			V126.832z"/>
		<path fill="#FFFFFF" d="M170.99,131.395c-4.658,1.003-9.498,1.898-14.475,2.651v22.913c5.069-0.708,9.905-1.561,14.475-2.537
			V131.395z"/>
		<path fill="#FFFFFF" d="M52.947,126.085c-5.362-1.711-10.292-3.54-14.662-5.426v22.575c4.197,2.489,9.079,4.745,14.662,6.728
			V126.085z"/>
		<path fill="#FFFFFF" d="M153.133,134.538c-5.643,0.777-11.432,1.372-17.295,1.749v22.654c6.021-0.329,11.787-0.85,17.295-1.533
			V134.538z"/>
		<path fill="#FFFFFF" d="M191.859,148.484c4.648-1.716,8.798-3.571,12.402-5.532V120.98c-3.72,1.661-7.887,3.264-12.402,4.766
			V148.484z"/>
		<path fill="#FFFFFF" d="M132.459,136.484c-3.744,0.188-7.51,0.291-11.28,0.291c-2.129,0-4.258-0.044-6.389-0.108v22.599
			c2.1,0.038,4.219,0.064,6.389,0.064c3.845,0,7.601-0.084,11.28-0.235V136.484z"/>
		<path fill="#FFFFFF" d="M34.901,119.135c-2.98-1.404-5.649-2.83-7.941-4.25c-2.58-2.124,6.454-7.351,11.011-9.797
			c-1.502-0.283-12.094,5.095-13.786,7.963c-2.306,4.961-1.27,11.935-1.27,15.883c2.657,4.406,6.648,8.494,11.983,12.154v-21.953
			H34.901z"/>
		<path fill="#FFFFFF" d="M217.605,113.053c-3.835-3.646-10.344-7.008-14.541-8.602c0.023,0.42,0.048,0.842,0.074,1.262
			c6.415,3.629,13.411,8.479,10.709,10.253c-1.846,1.154-3.93,2.297-6.201,3.42v21.603c6.75-4.2,11.102-8.761,12.592-13.276
			C220.241,123.767,220.352,115.403,217.605,113.053z"/>
		<path fill="#FFFFFF" d="M70.992,130.967c-5.119-1.162-10.029-2.448-14.662-3.837v23.971c4.479,1.435,9.365,2.7,14.662,3.787
			V130.967z"/>
		<path fill="#FFFFFF" d="M90.728,134.572c-5.594-0.783-11.071-1.752-16.354-2.869v23.842c5.095,0.943,10.545,1.717,16.354,2.321
			V134.572z"/>
		<path fill="#FFFFFF" d="M111.406,136.529c-5.812-0.28-11.602-0.796-17.294-1.509v23.165c5.462,0.486,11.218,0.83,17.294,1.003
			V136.529z"/>
	</g>
	<g>
		<path fill="#FFFFFF" d="M199.658,97.185c-4.423,1.373-9.144,2.649-14.1,3.799v23.028c5.062-1.183,9.771-2.522,14.1-3.982V97.185z"
			/>
		<path fill="#FFFFFF" d="M182.175,101.742c-4.659,1.008-9.499,1.9-14.475,2.657v22.913c5.073-0.71,9.907-1.56,14.475-2.542V101.742
			z"/>
		<path fill="#FFFFFF" d="M64.131,96.44c-5.359-1.709-10.292-3.54-14.662-5.426v22.577c4.197,2.486,9.077,4.745,14.662,6.725V96.44z
			"/>
		<path fill="#FFFFFF" d="M164.316,104.891c-5.643,0.778-11.429,1.373-17.289,1.752v22.651c6.016-0.323,11.781-0.847,17.289-1.531
			V104.891z"/>
		<path fill="#FFFFFF" d="M203.043,118.84c4.646-1.716,8.799-3.576,12.405-5.535V91.333c-3.725,1.661-7.892,3.262-12.405,4.767
			V118.84z"/>
		<path fill="#FFFFFF" d="M143.643,106.837c-3.744,0.189-7.512,0.292-11.277,0.292c-2.129,0-4.26-0.041-6.392-0.108v22.601
			c2.098,0.038,4.22,0.06,6.392,0.06c3.845,0,7.601-0.084,11.277-0.235V106.837z"/>
		<path fill="#FFFFFF" d="M46.085,89.488c-2.98-1.402-5.649-2.83-7.941-4.25c-2.58-2.124,6.456-7.352,11.014-9.794
			c-1.502-0.283-12.094,5.095-13.788,7.961c-2.307,4.96-1.267,11.938-1.267,15.883c2.657,4.404,6.648,8.496,11.983,12.156V89.488z"
			/>
		<path fill="#FFFFFF" d="M228.793,83.406c-5.736-5.451-17.48-10.292-18.469-9.492c6.91,3.525,17.998,10.246,14.709,12.405
			c-1.845,1.155-3.928,2.299-6.203,3.42v21.6c6.751-4.2,11.104-8.758,12.596-13.27C231.426,94.122,231.535,85.758,228.793,83.406z"
			/>
		<path fill="#FFFFFF" d="M82.176,101.319c-5.119-1.159-10.032-2.45-14.662-3.835v23.969c4.479,1.433,9.365,2.7,14.662,3.787
			V101.319z"/>
		<path fill="#FFFFFF" d="M101.912,104.922c-5.595-0.782-11.069-1.75-16.352-2.865v23.841c5.093,0.938,10.543,1.713,16.352,2.316
			V104.922z"/>
		<path fill="#FFFFFF" d="M122.59,106.885c-5.813-0.281-11.604-0.797-17.294-1.512v23.17c5.462,0.489,11.218,0.825,17.294,1V106.885
			z"/>
	</g>
	<g>
		<path fill="#FFFFFF" d="M173.01,76.53v18.809c5.061-1.183,9.77-2.52,14.095-3.981V73.811
			C182.438,74.963,177.848,75.93,173.01,76.53z"/>
		<path fill="#FFFFFF" d="M155.152,78.527v20.112c5.069-0.708,9.908-1.56,14.473-2.539V76.888
			C164.715,77.332,159.941,78.023,155.152,78.527z"/>
		<path fill="#FFFFFF" d="M48.96,73.115c-3.751-0.965-7.973-2.035-12.041-3.509v15.307c4.195,2.489,9.079,4.745,14.662,6.728V73.753
			C50.705,73.547,49.832,73.34,48.96,73.115z"/>
		<path fill="#FFFFFF" d="M134.473,80.625v19.994c6.021-0.321,11.786-0.845,17.294-1.534V79.66
			C148.215,79.948,135.293,80.483,134.473,80.625z"/>
		<path fill="#FFFFFF" d="M192.68,72.373c-0.736,0.197-1.459,0.384-2.191,0.574v17.218c4.651-1.716,8.799-3.576,12.406-5.535V69.152
			C199.604,70.439,196.123,71.463,192.68,72.373z"/>
		<path fill="#FFFFFF" d="M113.424,80.864v20.083c2.1,0.038,4.219,0.064,6.389,0.064c3.845,0,7.601-0.086,11.281-0.237v-20.15
			C125.264,81.457,119.354,80.764,113.424,80.864z"/>
		<path fill="#FFFFFF" d="M23.792,61.763c-0.881-0.948-1.591-1.915-2.158-2.896c-0.653,4.209-0.082,8.817-0.082,11.75
			c2.657,4.407,6.648,8.496,11.983,12.154V68.255C29.815,66.621,26.388,64.549,23.792,61.763z"/>
		<path fill="#FFFFFF" d="M206.277,67.703v14.964c6.754-4.2,11.107-8.76,12.594-13.272c0-2.89,0.041-8.122-1.004-11.652
			C215.249,62.271,211.106,65.392,206.277,67.703z"/>
		<path fill="#FFFFFF" d="M54.965,74.541v18.242c4.479,1.433,9.365,2.7,14.662,3.785V77.286
			C64.709,76.518,59.813,75.618,54.965,74.541z"/>
		<path fill="#FFFFFF" d="M83.016,79.101c-3.333-0.394-6.672-0.828-10.005-1.311v19.435c5.093,0.938,10.543,1.716,16.351,2.316
			V79.782C87.238,79.576,85.121,79.35,83.016,79.101z"/>
		<path fill="#FFFFFF" d="M92.748,80.089v19.778c5.462,0.49,11.218,0.831,17.292,1.003V80.888
			C104.264,80.872,98.477,80.574,92.748,80.089z"/>
	</g>
	<path fill="#FFFFFF" d="M119.492,37.667c-55.954,0-94.949,10.142-94.949,19.246c0,9.103,38.993,19.248,94.949,19.248
		c55.954,0,94.946-10.145,94.946-19.248C214.438,47.809,175.445,37.667,119.492,37.667z"/>
	<path fill="#FFFFFF" d="M138.092,78.138c-0.363,0.17-0.746,0.31-1.169,0.394c-0.55,0.105-1.108,0.199-1.661,0.297
		c1.322-0.048,2.641-0.101,3.957-0.161C138.826,78.522,138.444,78.352,138.092,78.138z"/>
	<path fill="#FFFFFF" d="M23.792,61.763c-1.013-1.087-1.786-2.203-2.386-3.336c0.749,2.229,2.7,4.291,5.638,6.173
		C25.868,63.743,24.766,62.807,23.792,61.763z"/>
	<path fill="#FFFFFF" d="M208.654,66.474c5.136-2.522,8.393-5.407,9.16-8.64C215.635,61.557,212.434,64.331,208.654,66.474z"/>
</g>
</svg>
